%FSLAX34Y34*%
G04 Gerber Fmt 3.4, Leading zero omitted, Abs format*
G04 (created by PCBNEW (2014-02-26 BZR 4721)-product) date Saturday, May 16, 2015 'AMt' 10:53:37 AM*
%MOIN*%
G01*
G70*
G90*
G04 APERTURE LIST*
%ADD10C,0.005906*%
%ADD11R,0.055000X0.055000*%
%ADD12C,0.055000*%
%ADD13R,0.065000X0.065000*%
%ADD14C,0.065000*%
%ADD15R,0.070000X0.070000*%
%ADD16C,0.070000*%
%ADD17C,0.066000*%
%ADD18R,0.100000X0.100000*%
%ADD19C,0.100000*%
%ADD20C,0.060000*%
%ADD21R,0.090000X0.062000*%
%ADD22O,0.090000X0.062000*%
%ADD23O,0.100000X0.060000*%
%ADD24C,0.150000*%
%ADD25R,0.150000X0.150000*%
%ADD26C,0.035000*%
%ADD27C,0.030000*%
%ADD28C,0.050000*%
%ADD29C,0.015000*%
G04 APERTURE END LIST*
G54D10*
G54D11*
X500Y11000D03*
G54D12*
X1500Y11000D03*
G54D13*
X24000Y33500D03*
G54D14*
X24000Y32500D03*
G54D15*
X24000Y3500D03*
G54D16*
X24000Y1500D03*
G54D11*
X27500Y6000D03*
G54D12*
X28500Y6000D03*
X18500Y7000D03*
X20500Y7000D03*
X20500Y18500D03*
X18500Y18500D03*
G54D17*
X5500Y5500D03*
X4500Y5500D03*
X2500Y5500D03*
X1500Y5500D03*
G54D18*
X28000Y33500D03*
G54D19*
X28000Y31500D03*
G54D18*
X28000Y3500D03*
G54D19*
X28000Y1500D03*
G54D18*
X28000Y13500D03*
G54D19*
X28000Y11500D03*
G54D20*
X1500Y3000D03*
X5500Y3000D03*
X5500Y1500D03*
X1500Y1500D03*
X17500Y5500D03*
X21500Y5500D03*
X21500Y20000D03*
X17500Y20000D03*
G54D21*
X3000Y24000D03*
G54D22*
X3000Y23000D03*
X3000Y22000D03*
X3000Y21000D03*
X3000Y20000D03*
X3000Y19000D03*
X3000Y18000D03*
X3000Y17000D03*
X3000Y16000D03*
X3000Y15000D03*
X3000Y14000D03*
X3000Y13000D03*
X3000Y12000D03*
X3000Y11000D03*
X3000Y10000D03*
X9000Y10000D03*
X9000Y11000D03*
X9000Y12000D03*
X9000Y13000D03*
X9000Y14000D03*
X9000Y15000D03*
X9000Y16000D03*
X9000Y17000D03*
X9000Y18000D03*
X9000Y19000D03*
X9000Y20000D03*
X9000Y21000D03*
X9000Y22000D03*
X9000Y23000D03*
X9000Y24000D03*
G54D23*
X21000Y15500D03*
X23000Y15000D03*
X21000Y14500D03*
X23000Y14000D03*
X21000Y13500D03*
X23000Y13000D03*
X21000Y12500D03*
X23000Y12000D03*
X21000Y11500D03*
X23000Y11000D03*
X21000Y10500D03*
X23000Y10000D03*
X21000Y9500D03*
X23000Y9000D03*
X21000Y8500D03*
G54D12*
X4000Y30500D03*
X2000Y30500D03*
X4000Y33500D03*
X2000Y33500D03*
X4000Y26500D03*
X2000Y26500D03*
X4000Y29500D03*
X2000Y29500D03*
G54D24*
X28000Y26500D03*
X28000Y24500D03*
G54D25*
X28000Y28500D03*
G54D24*
X28000Y22500D03*
X28000Y20500D03*
X28000Y18500D03*
G54D20*
X17500Y22000D03*
X21500Y22000D03*
X17500Y24000D03*
X21500Y24000D03*
X17500Y26000D03*
X21500Y26000D03*
X17500Y28000D03*
X21500Y28000D03*
G54D11*
X16000Y22000D03*
G54D12*
X16000Y23000D03*
X13000Y23000D03*
X13000Y22000D03*
G54D11*
X16000Y24000D03*
G54D12*
X16000Y25000D03*
X13000Y25000D03*
X13000Y24000D03*
G54D11*
X16000Y26000D03*
G54D12*
X16000Y27000D03*
X13000Y27000D03*
X13000Y26000D03*
G54D11*
X16000Y28000D03*
G54D12*
X16000Y29000D03*
X13000Y29000D03*
X13000Y28000D03*
G54D26*
X16750Y4750D03*
X16750Y11250D03*
X26000Y28500D03*
X27500Y7500D03*
X20000Y8000D03*
X6000Y9500D03*
X1500Y8500D03*
X19500Y17000D03*
X17500Y14000D03*
X17500Y7000D03*
X18500Y9000D03*
X19000Y15000D03*
X11000Y9500D03*
X11000Y19000D03*
X12000Y10500D03*
X12000Y20000D03*
G54D27*
X19000Y11500D02*
X17000Y11500D01*
X21000Y11500D02*
X19000Y11500D01*
G54D28*
X16750Y4750D02*
X16750Y3500D01*
G54D27*
X17000Y11500D02*
X16750Y11250D01*
X5500Y1500D02*
X6000Y1500D01*
G54D28*
X8000Y3500D02*
X16750Y3500D01*
X16750Y3500D02*
X24000Y3500D01*
G54D27*
X6000Y1500D02*
X8000Y3500D01*
G54D28*
X27500Y6000D02*
X27500Y7500D01*
X26000Y28500D02*
X28000Y28500D01*
X27500Y6000D02*
X27500Y4000D01*
X27500Y4000D02*
X28000Y3500D01*
X24000Y3500D02*
X28000Y3500D01*
G54D27*
X24000Y33500D02*
X23000Y33500D01*
X5000Y14000D02*
X4000Y13000D01*
X5000Y24000D02*
X5000Y14000D01*
X3000Y26000D02*
X5000Y24000D01*
X3000Y34000D02*
X3000Y26000D01*
X3500Y34500D02*
X3000Y34000D01*
X22000Y34500D02*
X3500Y34500D01*
X23000Y33500D02*
X22000Y34500D01*
X20000Y9000D02*
X19000Y8000D01*
X4500Y12500D02*
X4000Y13000D01*
G54D29*
X20000Y9000D02*
X22000Y9000D01*
G54D27*
X23000Y9000D02*
X22000Y9000D01*
X19000Y8000D02*
X6000Y8000D01*
X6000Y8000D02*
X4500Y9500D01*
X4500Y9500D02*
X4500Y12500D01*
X500Y11000D02*
X500Y4000D01*
X500Y4000D02*
X1500Y3000D01*
X2000Y13000D02*
X1500Y13000D01*
X3000Y13000D02*
X2000Y13000D01*
X500Y12000D02*
X500Y11000D01*
X1500Y13000D02*
X500Y12000D01*
X4000Y13000D02*
X3000Y13000D01*
G54D28*
X28000Y33500D02*
X24000Y33500D01*
G54D27*
X20000Y7500D02*
X20500Y7000D01*
X20000Y8000D02*
X20000Y7500D01*
X18500Y18500D02*
X18500Y18000D01*
X18500Y18000D02*
X19500Y17000D01*
X4000Y26500D02*
X6000Y24500D01*
X6000Y24500D02*
X6000Y9500D01*
X14000Y8500D02*
X17000Y8500D01*
X7000Y8500D02*
X6000Y9500D01*
X14000Y8500D02*
X7000Y8500D01*
G54D29*
X20000Y10000D02*
X22000Y10000D01*
G54D27*
X23000Y10000D02*
X22000Y10000D01*
X20000Y10000D02*
X19500Y10000D01*
X19500Y10000D02*
X18500Y10000D01*
X17000Y8500D02*
X18500Y10000D01*
X20500Y7000D02*
X20500Y6500D01*
X20500Y6500D02*
X21500Y5500D01*
G54D28*
X28500Y6000D02*
X29500Y6000D01*
X24000Y1500D02*
X28000Y1500D01*
X29500Y17000D02*
X29500Y6000D01*
X29500Y6000D02*
X29500Y2000D01*
X29000Y1500D02*
X28000Y1500D01*
X29500Y2000D02*
X29000Y1500D01*
G54D27*
X21000Y13500D02*
X18000Y13500D01*
X18000Y13500D02*
X17500Y14000D01*
G54D28*
X29500Y17000D02*
X29000Y17000D01*
X29000Y17000D02*
X19500Y17000D01*
X29500Y17000D02*
X29500Y27000D01*
X28000Y26500D02*
X29000Y26500D01*
G54D27*
X28500Y31500D02*
X28000Y31500D01*
G54D28*
X29500Y30500D02*
X28500Y31500D01*
X29500Y27000D02*
X29500Y30500D01*
X29000Y26500D02*
X29500Y27000D01*
G54D27*
X24000Y32500D02*
X24000Y32000D01*
X17500Y30500D02*
X16000Y29000D01*
X22500Y30500D02*
X17500Y30500D01*
X24000Y32000D02*
X22500Y30500D01*
X13000Y29000D02*
X4000Y29000D01*
X4000Y29500D02*
X4000Y29000D01*
X4000Y29000D02*
X4000Y26500D01*
X4000Y30500D02*
X4000Y29500D01*
X4000Y33500D02*
X4000Y30500D01*
X4500Y5500D02*
X4000Y5500D01*
X3000Y6500D02*
X1500Y6500D01*
X4000Y5500D02*
X3000Y6500D01*
X1500Y11000D02*
X1500Y8500D01*
X1500Y8500D02*
X1500Y6500D01*
X1500Y6500D02*
X1500Y5500D01*
X1500Y11000D02*
X3000Y11000D01*
X18500Y18500D02*
X18000Y18500D01*
X17500Y19000D02*
X17500Y20000D01*
X18000Y18500D02*
X17500Y19000D01*
X16000Y25000D02*
X14500Y25000D01*
X13000Y25000D02*
X14500Y25000D01*
X16000Y27000D02*
X14500Y27000D01*
X13000Y27000D02*
X14500Y27000D01*
X14500Y23000D02*
X14500Y25000D01*
X14500Y25000D02*
X14500Y27000D01*
X14500Y27000D02*
X14500Y29000D01*
X13000Y23000D02*
X14500Y23000D01*
X14500Y23000D02*
X16000Y23000D01*
X13000Y29000D02*
X14500Y29000D01*
X14500Y29000D02*
X16000Y29000D01*
G54D28*
X28000Y31500D02*
X25000Y31500D01*
X25000Y31500D02*
X24000Y32500D01*
G54D27*
X21000Y9500D02*
X19000Y9500D01*
X17500Y7000D02*
X18500Y7000D01*
X19000Y9500D02*
X18500Y9000D01*
X18500Y7000D02*
X17500Y6000D01*
X17500Y6000D02*
X17500Y5500D01*
X21000Y14500D02*
X19500Y14500D01*
X19500Y14500D02*
X19000Y15000D01*
X20500Y18500D02*
X21000Y18500D01*
X21500Y19000D02*
X21500Y20000D01*
X21000Y18500D02*
X21500Y19000D01*
X5500Y5500D02*
X5500Y3000D01*
X1500Y1500D02*
X2000Y1500D01*
X2500Y2000D02*
X2500Y5500D01*
X2000Y1500D02*
X2500Y2000D01*
X16000Y22000D02*
X17500Y22000D01*
X9000Y21000D02*
X10000Y21000D01*
X12000Y21000D02*
X13000Y22000D01*
X10000Y21000D02*
X12000Y21000D01*
X16000Y24000D02*
X17500Y24000D01*
X13000Y24000D02*
X12500Y24000D01*
X10500Y22000D02*
X9000Y22000D01*
X12500Y24000D02*
X10500Y22000D01*
X16000Y26000D02*
X17500Y26000D01*
X12000Y25500D02*
X9500Y23000D01*
X9000Y23000D02*
X9500Y23000D01*
X12500Y26000D02*
X13000Y26000D01*
X12000Y25500D02*
X12500Y26000D01*
G54D29*
X16000Y28000D02*
X17500Y28000D01*
G54D27*
X13000Y28000D02*
X12500Y28000D01*
X9000Y24500D02*
X9000Y24000D01*
X12500Y28000D02*
X9000Y24500D01*
G54D28*
X21000Y15500D02*
X21500Y16000D01*
X25500Y16000D02*
X28000Y13500D01*
X21500Y16000D02*
X25500Y16000D01*
X21000Y8500D02*
X21500Y8000D01*
X24500Y8000D02*
X28000Y11500D01*
X21500Y8000D02*
X24500Y8000D01*
G54D27*
X23000Y27000D02*
X24000Y27000D01*
X24000Y27000D02*
X26500Y24500D01*
X21500Y22000D02*
X20500Y22000D01*
X26500Y24500D02*
X28000Y24500D01*
X20500Y27000D02*
X23000Y27000D01*
X20000Y26500D02*
X20500Y27000D01*
X20000Y22500D02*
X20000Y26500D01*
X20500Y22000D02*
X20000Y22500D01*
X28000Y22500D02*
X27000Y22500D01*
X25500Y24000D02*
X21500Y24000D01*
X27000Y22500D02*
X25500Y24000D01*
X21500Y26000D02*
X21000Y25500D01*
X27500Y20500D02*
X28000Y20500D01*
X25000Y23000D02*
X27500Y20500D01*
X21000Y23000D02*
X25000Y23000D01*
X20500Y23500D02*
X21000Y23000D01*
X20500Y25000D02*
X20500Y23500D01*
X21000Y25500D02*
X20500Y25000D01*
X21500Y28000D02*
X20500Y28000D01*
X27000Y18500D02*
X28000Y18500D01*
X24500Y21000D02*
X27000Y18500D01*
X20000Y21000D02*
X24500Y21000D01*
X19500Y21500D02*
X20000Y21000D01*
X19500Y27000D02*
X19500Y21500D01*
X20500Y28000D02*
X19500Y27000D01*
X2000Y30500D02*
X1500Y30500D01*
X1500Y30500D02*
X1000Y30000D01*
X1000Y30000D02*
X1000Y21500D01*
X2000Y33500D02*
X2000Y30500D01*
X3000Y20000D02*
X2500Y20000D01*
X2500Y20000D02*
X1000Y21500D01*
X3000Y21000D02*
X2500Y21000D01*
X2000Y21500D02*
X2000Y26500D01*
X2500Y21000D02*
X2000Y21500D01*
X2000Y29500D02*
X2000Y26500D01*
X20000Y12000D02*
X13500Y12000D01*
X23000Y12000D02*
X22000Y12000D01*
G54D29*
X20000Y12000D02*
X22000Y12000D01*
G54D27*
X11500Y14000D02*
X9000Y14000D01*
X13500Y12000D02*
X11500Y14000D01*
X21000Y12500D02*
X14000Y12500D01*
X11500Y15000D02*
X9000Y15000D01*
X14000Y12500D02*
X11500Y15000D01*
X20000Y13000D02*
X14500Y13000D01*
X23000Y13000D02*
X22000Y13000D01*
G54D29*
X20000Y13000D02*
X22000Y13000D01*
G54D27*
X11500Y16000D02*
X9000Y16000D01*
X14500Y13000D02*
X11500Y16000D01*
X20000Y14000D02*
X19000Y14000D01*
X23000Y14000D02*
X22000Y14000D01*
G54D29*
X20000Y14000D02*
X22000Y14000D01*
G54D27*
X11500Y17000D02*
X9000Y17000D01*
X13500Y15000D02*
X11500Y17000D01*
X18000Y15000D02*
X13500Y15000D01*
X19000Y14000D02*
X18000Y15000D01*
X20000Y15000D02*
X18500Y16500D01*
X23000Y15000D02*
X22000Y15000D01*
G54D29*
X20000Y15000D02*
X22000Y15000D01*
G54D27*
X15500Y18000D02*
X9000Y18000D01*
X17000Y16500D02*
X15500Y18000D01*
X18500Y16500D02*
X17000Y16500D01*
X9000Y19000D02*
X11000Y19000D01*
X18000Y10500D02*
X17000Y9500D01*
X17000Y9500D02*
X11000Y9500D01*
X18000Y10500D02*
X21000Y10500D01*
X17500Y11000D02*
X17000Y10500D01*
X17000Y10500D02*
X12000Y10500D01*
G54D29*
X20000Y11000D02*
X22000Y11000D01*
G54D27*
X23000Y11000D02*
X22000Y11000D01*
X20000Y11000D02*
X17500Y11000D01*
X12000Y20000D02*
X9000Y20000D01*
M02*
