M48
;DRILL file {Pcbnew (2014-02-26 BZR 4721)-product} date Saturday, May 16, 2015 'AMt' 10:55:38 AM
;FORMAT={-:-/ absolute / inch / decimal}
FMAT,2
INCH,TZ
T1C0.025
T2C0.032
T3C0.035
T4C0.040
T5C0.060
T6C0.125
%
G90
G05
M72
T1
X0.15Y0.85
X0.6Y0.95
X1.1Y1.9
X1.1Y0.95
X1.2Y2.
X1.2Y1.05
X1.675Y1.125
X1.675Y0.475
X1.75Y1.4
X1.75Y0.7
X1.85Y0.9
X1.9Y1.5
X1.95Y1.7
X2.Y0.8
X2.6Y2.85
X2.75Y0.75
T2
X0.05Y1.1
X0.15Y1.1
X0.15Y0.55
X0.15Y0.3
X0.15Y0.15
X0.2Y3.35
X0.2Y3.05
X0.2Y2.95
X0.2Y2.65
X0.25Y0.55
X0.3Y2.4
X0.3Y2.3
X0.3Y2.2
X0.3Y2.1
X0.3Y2.
X0.3Y1.9
X0.3Y1.8
X0.3Y1.7
X0.3Y1.6
X0.3Y1.5
X0.3Y1.4
X0.3Y1.3
X0.3Y1.2
X0.3Y1.1
X0.3Y1.
X0.4Y3.35
X0.4Y3.05
X0.4Y2.95
X0.4Y2.65
X0.45Y0.55
X0.55Y0.55
X0.55Y0.3
X0.55Y0.15
X0.9Y2.4
X0.9Y2.3
X0.9Y2.2
X0.9Y2.1
X0.9Y2.
X0.9Y1.9
X0.9Y1.8
X0.9Y1.7
X0.9Y1.6
X0.9Y1.5
X0.9Y1.4
X0.9Y1.3
X0.9Y1.2
X0.9Y1.1
X0.9Y1.
X1.3Y2.9
X1.3Y2.8
X1.3Y2.7
X1.3Y2.6
X1.3Y2.5
X1.3Y2.4
X1.3Y2.3
X1.3Y2.2
X1.6Y2.9
X1.6Y2.8
X1.6Y2.7
X1.6Y2.6
X1.6Y2.5
X1.6Y2.4
X1.6Y2.3
X1.6Y2.2
X1.75Y2.8
X1.75Y2.6
X1.75Y2.4
X1.75Y2.2
X1.75Y2.
X1.75Y0.55
X1.85Y1.85
X1.85Y0.7
X2.05Y1.85
X2.05Y0.7
X2.15Y2.8
X2.15Y2.6
X2.15Y2.4
X2.15Y2.2
X2.15Y2.
X2.15Y0.55
X2.4Y3.35
X2.4Y3.25
X2.75Y0.6
X2.85Y0.6
T3
X2.1Y1.55
X2.1Y1.45
X2.1Y1.35
X2.1Y1.25
X2.1Y1.15
X2.1Y1.05
X2.1Y0.95
X2.1Y0.85
X2.3Y1.5
X2.3Y1.4
X2.3Y1.3
X2.3Y1.2
X2.3Y1.1
X2.3Y1.
X2.3Y0.9
T4
X2.4Y0.35
X2.4Y0.15
T5
X2.8Y3.35
X2.8Y3.15
X2.8Y2.85
X2.8Y2.65
X2.8Y2.45
X2.8Y2.25
X2.8Y2.05
X2.8Y1.85
X2.8Y1.35
X2.8Y1.15
X2.8Y0.35
X2.8Y0.15
T6
X1.008Y3.3
X1.008Y0.2
X1.992Y3.3
X1.992Y0.2
T0
M30
