%FSLAX34Y34*%
G04 Gerber Fmt 3.4, Leading zero omitted, Abs format*
G04 (created by PCBNEW (2014-02-26 BZR 4721)-product) date Saturday, May 16, 2015 'AMt' 10:53:37 AM*
%MOIN*%
G01*
G70*
G90*
G04 APERTURE LIST*
%ADD10C,0.005906*%
%ADD11C,0.020000*%
%ADD12R,0.055000X0.055000*%
%ADD13C,0.055000*%
%ADD14R,0.065000X0.065000*%
%ADD15C,0.065000*%
%ADD16R,0.070000X0.070000*%
%ADD17C,0.070000*%
%ADD18C,0.066000*%
%ADD19R,0.100000X0.100000*%
%ADD20C,0.100000*%
%ADD21C,0.060000*%
%ADD22R,0.090000X0.062000*%
%ADD23O,0.090000X0.062000*%
%ADD24O,0.100000X0.060000*%
%ADD25C,0.150000*%
%ADD26R,0.150000X0.150000*%
%ADD27C,0.035000*%
%ADD28C,0.050000*%
%ADD29C,0.030000*%
G04 APERTURE END LIST*
G54D10*
G54D11*
X13952Y5190D02*
X13952Y5761D01*
X14952Y5476D02*
X13952Y5476D01*
X13952Y6285D02*
X13952Y6476D01*
X14000Y6571D01*
X14095Y6666D01*
X14285Y6714D01*
X14619Y6714D01*
X14809Y6666D01*
X14904Y6571D01*
X14952Y6476D01*
X14952Y6285D01*
X14904Y6190D01*
X14809Y6095D01*
X14619Y6047D01*
X14285Y6047D01*
X14095Y6095D01*
X14000Y6190D01*
X13952Y6285D01*
X13952Y7333D02*
X13952Y7523D01*
X14000Y7619D01*
X14095Y7714D01*
X14285Y7761D01*
X14619Y7761D01*
X14809Y7714D01*
X14904Y7619D01*
X14952Y7523D01*
X14952Y7333D01*
X14904Y7238D01*
X14809Y7142D01*
X14619Y7095D01*
X14285Y7095D01*
X14095Y7142D01*
X14000Y7238D01*
X13952Y7333D01*
X14952Y8666D02*
X14952Y8190D01*
X13952Y8190D01*
X14428Y8999D02*
X14428Y9333D01*
X14952Y9476D02*
X14952Y8999D01*
X13952Y8999D01*
X13952Y9476D01*
X14952Y10476D02*
X14476Y10142D01*
X14952Y9904D02*
X13952Y9904D01*
X13952Y10285D01*
X14000Y10380D01*
X14047Y10428D01*
X14142Y10476D01*
X14285Y10476D01*
X14380Y10428D01*
X14428Y10380D01*
X14476Y10285D01*
X14476Y9904D01*
X14666Y10857D02*
X14666Y11333D01*
X14952Y10761D02*
X13952Y11095D01*
X14952Y11428D01*
X13952Y11619D02*
X13952Y12190D01*
X14952Y11904D02*
X13952Y11904D01*
X13952Y12714D02*
X13952Y12904D01*
X14000Y12999D01*
X14095Y13095D01*
X14285Y13142D01*
X14619Y13142D01*
X14809Y13095D01*
X14904Y12999D01*
X14952Y12904D01*
X14952Y12714D01*
X14904Y12619D01*
X14809Y12523D01*
X14619Y12476D01*
X14285Y12476D01*
X14095Y12523D01*
X14000Y12619D01*
X13952Y12714D01*
X14952Y14142D02*
X14476Y13809D01*
X14952Y13571D02*
X13952Y13571D01*
X13952Y13952D01*
X14000Y14047D01*
X14047Y14095D01*
X14142Y14142D01*
X14285Y14142D01*
X14380Y14095D01*
X14428Y14047D01*
X14476Y13952D01*
X14476Y13571D01*
X13952Y15238D02*
X13952Y15857D01*
X14333Y15523D01*
X14333Y15666D01*
X14380Y15761D01*
X14428Y15809D01*
X14523Y15857D01*
X14761Y15857D01*
X14857Y15809D01*
X14904Y15761D01*
X14952Y15666D01*
X14952Y15380D01*
X14904Y15285D01*
X14857Y15238D01*
X13952Y16476D02*
X13952Y16571D01*
X14000Y16666D01*
X14047Y16714D01*
X14142Y16761D01*
X14333Y16809D01*
X14571Y16809D01*
X14761Y16761D01*
X14857Y16714D01*
X14904Y16666D01*
X14952Y16571D01*
X14952Y16476D01*
X14904Y16380D01*
X14857Y16333D01*
X14761Y16285D01*
X14571Y16238D01*
X14333Y16238D01*
X14142Y16285D01*
X14047Y16333D01*
X14000Y16380D01*
X13952Y16476D01*
X13952Y17428D02*
X13952Y17523D01*
X14000Y17619D01*
X14047Y17666D01*
X14142Y17714D01*
X14333Y17761D01*
X14571Y17761D01*
X14761Y17714D01*
X14857Y17666D01*
X14904Y17619D01*
X14952Y17523D01*
X14952Y17428D01*
X14904Y17333D01*
X14857Y17285D01*
X14761Y17238D01*
X14571Y17190D01*
X14333Y17190D01*
X14142Y17238D01*
X14047Y17285D01*
X14000Y17333D01*
X13952Y17428D01*
X13952Y18380D02*
X13952Y18476D01*
X14000Y18571D01*
X14047Y18619D01*
X14142Y18666D01*
X14333Y18714D01*
X14571Y18714D01*
X14761Y18666D01*
X14857Y18619D01*
X14904Y18571D01*
X14952Y18476D01*
X14952Y18380D01*
X14904Y18285D01*
X14857Y18238D01*
X14761Y18190D01*
X14571Y18142D01*
X14333Y18142D01*
X14142Y18190D01*
X14047Y18238D01*
X14000Y18285D01*
X13952Y18380D01*
G54D12*
X500Y11000D03*
G54D13*
X1500Y11000D03*
G54D14*
X24000Y33500D03*
G54D15*
X24000Y32500D03*
G54D16*
X24000Y3500D03*
G54D17*
X24000Y1500D03*
G54D12*
X27500Y6000D03*
G54D13*
X28500Y6000D03*
X18500Y7000D03*
X20500Y7000D03*
X20500Y18500D03*
X18500Y18500D03*
G54D18*
X5500Y5500D03*
X4500Y5500D03*
X2500Y5500D03*
X1500Y5500D03*
G54D19*
X28000Y33500D03*
G54D20*
X28000Y31500D03*
G54D19*
X28000Y3500D03*
G54D20*
X28000Y1500D03*
G54D19*
X28000Y13500D03*
G54D20*
X28000Y11500D03*
G54D21*
X1500Y3000D03*
X5500Y3000D03*
X5500Y1500D03*
X1500Y1500D03*
X17500Y5500D03*
X21500Y5500D03*
X21500Y20000D03*
X17500Y20000D03*
G54D22*
X3000Y24000D03*
G54D23*
X3000Y23000D03*
X3000Y22000D03*
X3000Y21000D03*
X3000Y20000D03*
X3000Y19000D03*
X3000Y18000D03*
X3000Y17000D03*
X3000Y16000D03*
X3000Y15000D03*
X3000Y14000D03*
X3000Y13000D03*
X3000Y12000D03*
X3000Y11000D03*
X3000Y10000D03*
X9000Y10000D03*
X9000Y11000D03*
X9000Y12000D03*
X9000Y13000D03*
X9000Y14000D03*
X9000Y15000D03*
X9000Y16000D03*
X9000Y17000D03*
X9000Y18000D03*
X9000Y19000D03*
X9000Y20000D03*
X9000Y21000D03*
X9000Y22000D03*
X9000Y23000D03*
X9000Y24000D03*
G54D24*
X21000Y15500D03*
X23000Y15000D03*
X21000Y14500D03*
X23000Y14000D03*
X21000Y13500D03*
X23000Y13000D03*
X21000Y12500D03*
X23000Y12000D03*
X21000Y11500D03*
X23000Y11000D03*
X21000Y10500D03*
X23000Y10000D03*
X21000Y9500D03*
X23000Y9000D03*
X21000Y8500D03*
G54D13*
X4000Y30500D03*
X2000Y30500D03*
X4000Y33500D03*
X2000Y33500D03*
X4000Y26500D03*
X2000Y26500D03*
X4000Y29500D03*
X2000Y29500D03*
G54D25*
X28000Y26500D03*
X28000Y24500D03*
G54D26*
X28000Y28500D03*
G54D25*
X28000Y22500D03*
X28000Y20500D03*
X28000Y18500D03*
G54D21*
X17500Y22000D03*
X21500Y22000D03*
X17500Y24000D03*
X21500Y24000D03*
X17500Y26000D03*
X21500Y26000D03*
X17500Y28000D03*
X21500Y28000D03*
G54D12*
X16000Y22000D03*
G54D13*
X16000Y23000D03*
X13000Y23000D03*
X13000Y22000D03*
G54D12*
X16000Y24000D03*
G54D13*
X16000Y25000D03*
X13000Y25000D03*
X13000Y24000D03*
G54D12*
X16000Y26000D03*
G54D13*
X16000Y27000D03*
X13000Y27000D03*
X13000Y26000D03*
G54D12*
X16000Y28000D03*
G54D13*
X16000Y29000D03*
X13000Y29000D03*
X13000Y28000D03*
G54D27*
X16750Y4750D03*
X16750Y11250D03*
X26000Y28500D03*
X27500Y7500D03*
X20000Y8000D03*
X6000Y9500D03*
X1500Y8500D03*
X19500Y17000D03*
X17500Y14000D03*
X17500Y7000D03*
X18500Y9000D03*
X19000Y15000D03*
X11000Y9500D03*
X11000Y19000D03*
X12000Y10500D03*
X12000Y20000D03*
G54D28*
X16750Y11250D02*
X16750Y4750D01*
X25500Y28000D02*
X26000Y28500D01*
X25500Y9500D02*
X25500Y28000D01*
X27500Y7500D02*
X25500Y9500D01*
G54D29*
X17500Y14000D02*
X17500Y13000D01*
X20000Y10500D02*
X20000Y8000D01*
X17500Y13000D02*
X20000Y10500D01*
X5000Y8500D02*
X6000Y9500D01*
X1500Y8500D02*
X5000Y8500D01*
G54D28*
X19500Y17000D02*
X17500Y15000D01*
X17500Y15000D02*
X17500Y14000D01*
G54D29*
X17500Y8000D02*
X17500Y7000D01*
X18500Y9000D02*
X17500Y8000D01*
X21500Y20000D02*
X21500Y18000D01*
X19000Y15500D02*
X19000Y15000D01*
X21500Y18000D02*
X19000Y15500D01*
X11000Y19000D02*
X11000Y9500D01*
X12000Y10500D02*
X12000Y20000D01*
M02*
